<svg width="514" height="307" viewBox="0 0 514 307" fill="none" xmlns="http://www.w3.org/2000/svg">
<path d="M71.136 120.146C85.488 120.146 97.11 125.762 106.002 136.994C114.894 148.07 119.34 164.45 119.34 186.134C119.34 200.642 117.234 212.888 113.022 222.872C108.81 232.7 103.038 240.11 95.706 245.102C88.374 250.094 79.872 252.59 70.2 252.59C64.116 252.59 58.812 251.81 54.288 250.25C49.92 248.69 46.176 246.662 43.056 244.166C39.936 241.67 37.206 239.018 34.866 236.21H32.994C33.618 239.174 34.086 242.294 34.398 245.57C34.71 248.69 34.866 251.81 34.866 254.93V306.41H0V122.486H28.314L33.228 139.1H34.866C37.206 135.668 40.014 132.548 43.29 129.74C46.566 126.776 50.466 124.436 54.99 122.72C59.67 121.004 65.052 120.146 71.136 120.146ZM59.904 147.992C53.82 147.992 48.984 149.24 45.396 151.736C41.808 154.232 39.156 158.054 37.44 163.202C35.88 168.194 35.022 174.512 34.866 182.156V185.9C34.866 194.168 35.646 201.188 37.206 206.96C38.766 212.576 41.418 216.866 45.162 219.83C48.906 222.794 53.976 224.276 60.372 224.276C65.676 224.276 70.044 222.794 73.476 219.83C76.908 216.866 79.482 212.498 81.198 206.726C82.914 200.954 83.772 193.934 83.772 185.666C83.772 173.186 81.822 163.826 77.922 157.586C74.178 151.19 68.172 147.992 59.904 147.992ZM159.544 122.486V250.25H124.678V122.486H159.544ZM142.228 72.4102C147.376 72.4102 151.822 73.6582 155.566 76.1542C159.31 78.4942 161.182 82.9402 161.182 89.4922C161.182 95.8882 159.31 100.334 155.566 102.83C151.822 105.326 147.376 106.574 142.228 106.574C136.924 106.574 132.4 105.326 128.656 102.83C125.068 100.334 123.274 95.8882 123.274 89.4922C123.274 82.9402 125.068 78.4942 128.656 76.1542C132.4 73.6582 136.924 72.4102 142.228 72.4102ZM245.115 120.146C258.843 120.146 269.841 123.89 278.109 131.378C286.377 138.71 290.511 150.566 290.511 166.946V250.25H255.645V175.604C255.645 166.4 254.007 159.536 250.731 155.012C247.455 150.332 242.229 147.992 235.053 147.992C224.445 147.992 217.191 151.658 213.291 158.99C209.391 166.166 207.441 176.54 207.441 190.112V250.25H172.575V122.486H199.251L203.931 138.866H205.803C208.611 134.498 212.043 130.988 216.099 128.336C220.155 125.528 224.679 123.5 229.671 122.252C234.663 120.848 239.811 120.146 245.115 120.146ZM344.384 120.146C352.184 120.146 359.204 121.706 365.444 124.826C371.684 127.946 376.988 132.626 381.356 138.866H382.292L385.1 122.486H414.584V250.484C414.584 262.652 412.166 272.87 407.33 281.138C402.65 289.406 395.552 295.646 386.036 299.858C376.52 304.226 364.742 306.41 350.702 306.41C341.654 306.41 333.23 305.864 325.43 304.772C317.786 303.68 310.298 301.73 302.966 298.922V271.076C308.27 273.26 313.574 275.054 318.878 276.458C324.338 278.018 329.876 279.11 335.492 279.734C341.264 280.514 347.036 280.904 352.808 280.904C361.856 280.904 368.564 278.486 372.932 273.65C377.456 268.814 379.718 261.56 379.718 251.888V249.314C379.718 246.662 379.796 243.932 379.952 241.124C380.264 238.316 380.498 235.82 380.654 233.636H379.718C375.35 240.344 370.124 245.18 364.04 248.144C357.956 251.108 351.092 252.59 343.448 252.59C328.316 252.59 316.46 246.818 307.88 235.274C299.456 223.574 295.244 207.35 295.244 186.602C295.244 172.562 297.194 160.628 301.094 150.8C304.994 140.816 310.61 133.25 317.942 128.102C325.43 122.798 334.244 120.146 344.384 120.146ZM355.382 148.46C349.922 148.46 345.32 149.942 341.576 152.906C337.988 155.714 335.258 160.004 333.386 165.776C331.67 171.392 330.812 178.49 330.812 187.07C330.812 199.862 332.84 209.456 336.896 215.852C340.952 222.092 347.27 225.212 355.85 225.212C360.374 225.212 364.274 224.666 367.55 223.574C370.826 222.326 373.478 220.376 375.506 217.724C377.69 214.916 379.328 211.328 380.42 206.96C381.512 202.592 382.058 197.288 382.058 191.048V186.836C382.058 177.632 381.122 170.222 379.25 164.606C377.378 158.99 374.492 154.934 370.592 152.438C366.692 149.786 361.622 148.46 355.382 148.46Z" fill="#007BFF"/>
<path d="M432.77 64.2502C436.912 64.2502 440.27 60.8923 440.27 56.7502C440.27 52.608 436.912 49.2502 432.77 49.2502C428.628 49.2502 425.27 52.608 425.27 56.7502C425.27 60.8923 428.628 64.2502 432.77 64.2502Z" fill="#007BFF"/>
<path d="M457.77 64.2502C461.912 64.2502 465.27 60.8923 465.27 56.7502C465.27 52.608 461.912 49.2502 457.77 49.2502C453.628 49.2502 450.27 52.608 450.27 56.7502C450.27 60.8923 453.628 64.2502 457.77 64.2502Z" fill="#007BFF"/>
<path d="M490.27 56.7502C490.27 60.8922 486.912 64.2502 482.77 64.2502C478.628 64.2502 475.27 60.8922 475.27 56.7502C475.27 52.6082 478.628 49.2502 482.77 49.2502C486.912 49.2502 490.27 52.6082 490.27 56.7502Z" fill="#007BFF"/>
<path d="M511.52 55.1252C511.54 63.3742 509.61 71.5122 505.9 78.8752C501.49 87.6982 494.71 95.1202 486.317 100.308C477.927 105.496 468.259 108.246 458.395 108.25C450.146 108.272 442.008 106.344 434.645 102.625L399.02 114.5L410.895 78.8752C407.176 71.5122 405.248 63.3742 405.27 55.1252C405.274 45.2612 408.024 35.5932 413.212 27.2032C418.4 18.8142 425.822 12.0352 434.645 7.62519C442.008 3.90619 450.146 1.97819 458.395 2.00019H461.52C474.547 2.71919 486.852 8.21718 496.08 17.4432C505.3 26.6682 510.8 38.9732 511.52 52.0002V55.1252Z" stroke="#007BFF" stroke-width="4" stroke-linecap="round" stroke-linejoin="round"/>
</svg>
